<svg width="326" height="341" viewBox="0 0 326 341" fill="none" xmlns="http://www.w3.org/2000/svg">
<path d="M111.765 11.041C144.149 -1.25768 180.291 -3.34255 213.883 5.09214C225.758 8.19438 237.463 12.1286 248.482 17.5763C265.834 26.1513 281.527 37.8937 295.131 51.6358C301.48 58.3815 307.422 65.5182 312.684 73.146C317.389 80.3478 322.234 87.6348 324.85 95.9091C325.732 98.9763 326.228 102.209 325.897 105.401C325.571 112.463 322.234 119.309 316.993 124.03C313.09 127.809 308.249 130.66 302.988 132.058C297.131 133.637 291.012 134.765 284.929 134.138C279.102 133.447 273.204 132.249 267.983 129.457C263.884 127.408 259.951 124.902 256.799 121.539C252.691 117.469 250.08 112.232 246.583 107.682C238.195 95.7638 228.374 84.7681 216.824 75.8272C191.801 55.9458 159.186 46.8195 127.463 48.2228C116.414 48.8944 105.411 50.5933 94.6981 53.4149C76.3489 58.4868 58.8214 66.9916 43.9897 78.9996C27.7601 92.6214 14.2863 109.892 6.54976 129.723C5.63781 132.129 5.03653 134.639 4.00432 137C3.98428 136.248 4.03439 135.502 4.14462 134.765C5.68291 127.543 7.75734 120.441 10.2727 113.5C18.2848 90.1156 31.949 68.8109 49.4013 51.3551C53.956 46.7043 58.7964 42.3441 63.797 38.1794C78.1227 26.5322 94.5177 17.5512 111.765 11.041Z" fill="#A0D715"/>
<path d="M39 219C39.6721 221.078 39.9329 223.261 40.4195 225.385C42.496 235.639 46.5238 245.411 51.5898 254.531C56.3699 262.984 61.9776 271.02 68.774 277.981C72.9773 282.659 77.8778 286.635 82.713 290.625C87.4931 294.083 92.1679 297.712 97.3242 300.598C107.441 306.682 118.366 311.35 129.561 315.034C141.704 318.532 154.349 320.46 166.999 320.123C174.974 319.516 183 318.638 190.674 316.268C195.414 315.084 200.676 317.839 202.687 322.241C204.056 324.917 204.307 328.089 203.66 331C203.58 329.007 203.384 326.909 202.155 325.258C199.457 321.127 193.739 319.797 189.229 321.388C177.382 324.801 164.888 325.705 152.649 324.334C135.334 322.246 118.692 316.258 103.263 308.258C88.3207 300.222 74.6175 289.601 63.9237 276.36C52.934 262.623 44.8886 246.47 40.8559 229.32C40.0784 225.912 39.1806 222.509 39 219Z" fill="#A0D715"/>
<path d="M273.41 281.635C277.179 279.502 282.352 283.057 281.981 287.614C282.006 291.18 278.864 294.162 275.594 293.993C273.183 293.656 270.896 291.844 270.278 289.273C269.339 286.36 270.876 282.968 273.41 281.635Z" fill="#A0D715"/>
<path d="M252.218 293.34C255.296 292.487 258.848 293.251 261.132 295.504C263.382 297.551 264.415 300.755 263.846 303.719C263.223 307.89 259.057 311.129 254.837 310.996C249.948 311.134 245.698 306.465 246.017 301.712C245.992 297.999 248.576 294.38 252.218 293.34Z" fill="#A0D715"/>
<path d="M222.618 305.511C229.129 303.368 236.623 308.235 237.75 315.13C239.198 321.769 234.154 328.77 227.735 329.771C224.25 330.527 220.47 329.375 217.914 326.832C214.167 323.322 212.991 317.293 214.906 312.501C216.198 309.056 219.182 306.467 222.618 305.511Z" fill="#A0D715"/>
<path d="M127.567 48.1403C159.29 46.7363 191.904 55.867 216.927 75.758C228.477 84.7032 238.298 95.7042 246.686 107.628C250.183 112.181 252.794 117.42 256.903 121.492C260.054 124.856 263.988 127.363 268.087 129.414C273.308 132.207 279.205 133.405 285.033 134.097C291.116 134.724 297.234 133.596 303.091 132.016C308.352 130.618 313.193 127.764 317.096 123.984C322.337 119.261 325.674 112.411 326 105.346C325.77 108.054 326.2 110.802 325.684 113.489C324.216 121.943 318.664 129.314 311.579 133.967C306.263 137.502 299.849 138.76 293.636 139.683C279.376 140.821 264.459 136.354 253.826 126.611C250.679 123.548 247.888 120.143 244.807 117.019C231.699 103.717 216.086 92.6005 198.513 86.0671C187.825 82.1009 176.682 79.0122 165.252 78.3904C160.151 77.9893 155.036 77.3275 149.92 77.8188C133.5 78.3253 117.155 82.2714 102.403 89.5368C79.9104 100.708 61.9922 120.118 51.144 142.641C43.3675 158.521 38.5823 175.96 37.986 193.67C37.1843 202.064 37.9158 210.497 38.8879 218.836C39.0683 222.341 39.9652 225.74 40.7419 229.145C44.7704 246.278 52.8076 262.414 63.786 276.137C74.4688 289.365 88.1579 299.974 103.085 308.002C118.498 315.995 135.123 321.976 152.42 324.062C164.646 325.431 177.128 324.529 188.963 321.119C193.467 319.53 199.18 320.858 201.875 324.985C203.103 326.635 203.298 328.73 203.379 330.721C202.938 334.597 199.986 337.911 196.273 338.994C192.946 340.388 189.319 340.193 185.801 340.338C174.121 341.567 162.311 340.99 150.701 339.39C129.752 336.527 109.318 329.899 90.6683 319.921C75.511 311.718 61.3408 301.539 49.3051 289.154C42.1048 281.899 35.5007 274.046 29.7133 265.618C23.7156 257.364 18.9654 248.304 14.5761 239.123C6.45376 220.661 1.39798 200.775 0.471003 180.598C0.0751595 177.098 0.0751602 173.584 0 170.069C0.51109 158.957 1.23764 147.751 4.10876 136.96C5.14096 134.599 5.74224 132.087 6.65419 129.68C14.3907 109.839 27.8644 92.5604 44.094 78.932C58.9256 66.9181 76.453 58.4092 94.8021 53.3349C105.515 50.5119 116.518 48.8122 127.567 48.1403Z" fill="#0183C5"/>
</svg>
